<svg width="110" height="63" viewBox="0 0 110 63" fill="none" xmlns="http://www.w3.org/2000/svg">
<path d="M103.124 62.8169C103.602 63.0931 104.214 62.9292 104.49 62.4509L108.99 54.6567C109.266 54.1784 109.102 53.5668 108.624 53.2907C108.145 53.0145 107.534 53.1784 107.258 53.6567L103.258 60.5849L96.3295 56.5849C95.8512 56.3087 95.2396 56.4726 94.9635 56.9509C94.6873 57.4292 94.8512 58.0408 95.3295 58.3169L103.124 62.8169ZM0.999699 2.70091L1.13105 3.69224C14.9594 1.85995 36.6644 2.59813 56.7519 10.7597C76.8023 18.9062 95.2142 34.4299 102.658 62.2097L103.624 61.9509L104.59 61.6921C96.953 33.1917 78.0152 17.2403 57.5047 8.90683C37.0314 0.588461 14.9646 -0.158231 0.868344 1.70957L0.999699 2.70091Z" fill="#B11B75"/>
</svg>
