<svg width="40" height="40" viewBox="0 0 40 40" fill="none" xmlns="http://www.w3.org/2000/svg">
<path d="M20.0003 10.0007V21.6673M26.667 13.334V18.334M6.66699 32.5007V7.50065C6.66699 6.39558 7.10598 5.33577 7.88738 4.55437C8.66878 3.77297 9.72859 3.33398 10.8337 3.33398H31.667C32.109 3.33398 32.5329 3.50958 32.8455 3.82214C33.1581 4.1347 33.3337 4.55862 33.3337 5.00065V35.0007C33.3337 35.4427 33.1581 35.8666 32.8455 36.1792C32.5329 36.4917 32.109 36.6673 31.667 36.6673H10.8337C9.72859 36.6673 8.66878 36.2283 7.88738 35.4469C7.10598 34.6655 6.66699 33.6057 6.66699 32.5007ZM6.66699 32.5007C6.66699 31.3956 7.10598 30.3358 7.88738 29.5544C8.66878 28.773 9.72859 28.334 10.8337 28.334H33.3337M13.3337 13.334V18.334" stroke="url(#paint0_linear_8005_28194)" stroke-width="3.33333" stroke-linecap="round" stroke-linejoin="round"/>
<defs>
<linearGradient id="paint0_linear_8005_28194" x1="6.66699" y1="3.33398" x2="34.2502" y2="4.52251" gradientUnits="userSpaceOnUse">
<stop stop-color="#A7186E"/>
<stop offset="1" stop-color="#FFA936"/>
</linearGradient>
</defs>
</svg>
