<svg width="40" height="40" viewBox="0 0 40 40" fill="none" xmlns="http://www.w3.org/2000/svg">
<path d="M26.6663 13.334H16.6663C15.7823 13.334 14.9344 13.6852 14.3093 14.3103C13.6842 14.9354 13.333 15.7833 13.333 16.6673C13.333 17.5514 13.6842 18.3992 14.3093 19.0243C14.9344 19.6495 15.7823 20.0007 16.6663 20.0007H23.333C24.2171 20.0007 25.0649 20.3518 25.69 20.977C26.3152 21.6021 26.6663 22.4499 26.6663 23.334C26.6663 24.218 26.3152 25.0659 25.69 25.691C25.0649 26.3161 24.2171 26.6673 23.333 26.6673H13.333M19.9997 30.0007V10.0007M36.6663 20.0007C36.6663 29.2054 29.2044 36.6673 19.9997 36.6673C10.7949 36.6673 3.33301 29.2054 3.33301 20.0007C3.33301 10.7959 10.7949 3.33398 19.9997 3.33398C29.2044 3.33398 36.6663 10.7959 36.6663 20.0007Z" stroke="url(#paint0_linear_8005_28182)" stroke-width="3.33" stroke-linecap="round" stroke-linejoin="round"/>
<defs>
<linearGradient id="paint0_linear_8005_28182" x1="3.33301" y1="3.33398" x2="37.7761" y2="5.18913" gradientUnits="userSpaceOnUse">
<stop stop-color="#A7186E"/>
<stop offset="1" stop-color="#FFA936"/>
</linearGradient>
</defs>
</svg>
