<svg width="40" height="40" viewBox="0 0 40 40" fill="none" xmlns="http://www.w3.org/2000/svg">
<path d="M19.2081 3.82547C19.2811 3.67791 19.3939 3.55369 19.5338 3.46685C19.6737 3.38 19.8351 3.33398 19.9997 3.33398C20.1644 3.33398 20.3258 3.38 20.4657 3.46685C20.6055 3.55369 20.7184 3.67791 20.7914 3.82547L24.6414 11.6238C24.895 12.1371 25.2694 12.5812 25.7325 12.9179C26.1955 13.2546 26.7333 13.474 27.2997 13.5571L35.9097 14.8171C36.0729 14.8408 36.2262 14.9096 36.3522 15.0158C36.4783 15.122 36.5721 15.2614 36.6231 15.4182C36.6741 15.5749 36.6802 15.7428 36.6407 15.9029C36.6012 16.0629 36.5178 16.2087 36.3997 16.3238L30.1731 22.3871C29.7624 22.7873 29.4552 23.2813 29.2778 23.8265C29.1004 24.3718 29.0582 24.952 29.1547 25.5171L30.6247 34.0838C30.6535 34.2469 30.6359 34.4147 30.5739 34.5683C30.5119 34.7218 30.408 34.8548 30.274 34.9521C30.14 35.0494 29.9814 35.1071 29.8162 35.1186C29.651 35.1301 29.4859 35.095 29.3397 35.0171L21.6431 30.9705C21.1359 30.7042 20.5717 30.5651 19.9989 30.5651C19.4261 30.5651 18.8619 30.7042 18.3547 30.9705L10.6597 35.0171C10.5136 35.0945 10.3487 35.1293 10.1838 35.1176C10.0189 35.1058 9.86061 35.0481 9.7269 34.9508C9.5932 34.8536 9.48947 34.7208 9.4275 34.5675C9.36554 34.4142 9.34784 34.2466 9.37641 34.0838L10.8447 25.5188C10.9417 24.9534 10.8997 24.3728 10.7223 23.8272C10.5449 23.2816 10.2374 22.7874 9.82641 22.3871L3.59974 16.3255C3.48073 16.2105 3.3964 16.0645 3.35635 15.9039C3.3163 15.7434 3.32214 15.5748 3.37321 15.4175C3.42428 15.2601 3.51852 15.1202 3.64521 15.0138C3.77189 14.9073 3.92592 14.8386 4.08974 14.8155L12.6981 13.5571C13.2652 13.4746 13.8037 13.2556 14.2674 12.9188C14.731 12.582 15.1059 12.1376 15.3597 11.6238L19.2081 3.82547Z" stroke="url(#paint0_linear_8005_28186)" stroke-width="3.33" stroke-linecap="round" stroke-linejoin="round"/>
<defs>
<linearGradient id="paint0_linear_8005_28186" x1="3.33008" y1="3.33398" x2="37.7663" y2="5.27918" gradientUnits="userSpaceOnUse">
<stop stop-color="#A7186E"/>
<stop offset="1" stop-color="#FFA936"/>
</linearGradient>
</defs>
</svg>
